<?xml version="1.0" encoding="UTF-8" standalone="no"?>
<!-- Created with Inkscape (http://www.inkscape.org/) -->

<svg
   width="92.127914mm"
   height="76.305832mm"
   viewBox="0 0 92.127914 76.305832"
   version="1.1"
   id="svg2885"
   inkscape:version="1.1.1 (3bf5ae0, 2021-09-20)"
   sodipodi:docname="logo_name2.svg"
   xmlns:inkscape="http://www.inkscape.org/namespaces/inkscape"
   xmlns:sodipodi="http://sodipodi.sourceforge.net/DTD/sodipodi-0.dtd"
   xmlns="http://www.w3.org/2000/svg"
   xmlns:svg="http://www.w3.org/2000/svg">
  <sodipodi:namedview
     id="namedview2887"
     pagecolor="#ffffff"
     bordercolor="#666666"
     borderopacity="1.0"
     inkscape:pageshadow="2"
     inkscape:pageopacity="0.0"
     inkscape:pagecheckerboard="0"
     inkscape:document-units="mm"
     showgrid="false"
     inkscape:zoom="1.0973349"
     inkscape:cx="-110.26716"
     inkscape:cy="185.44931"
     inkscape:window-width="3440"
     inkscape:window-height="1375"
     inkscape:window-x="1920"
     inkscape:window-y="0"
     inkscape:window-maximized="1"
     inkscape:current-layer="g104" />
  <defs
     id="defs2882" />
  <g
     inkscape:label="Layer 1"
     inkscape:groupmode="layer"
     id="layer1"
     transform="translate(60.726413,-64.484278)">
    <g
       id="g104"
       transform="matrix(0.26458333,0,0,0.26458333,220.6315,811.05906)">
      <path
         class="st0"
         d="m -894.5,-2745.8 c -13.4,0 -24.2,10.9 -24.2,24.2 0,13.3 10.9,24.2 24.2,24.2 13.4,0 24.2,-10.9 24.2,-24.2 0,-13.3 -10.8,-24.2 -24.2,-24.2 z"
         id="path74"
         style="fill:#662d91;fill-opacity:1" />
      <path
         class="st0"
         d="m -924.2,-2688.3 c 0.8,0.3 1.6,0.5 2.5,0.5 1.6,0 3.3,-0.6 4.5,-1.9 2.5,-2.5 2.5,-6.6 0,-9.1 -1.3,-1.3 -2.9,-1.9 -4.6,-1.9 -1.7,0 -3.3,0.6 -4.6,1.9 -1.9,1.9 -2.4,4.7 -1.4,7 l -13,5.1 -53.9,64.2 1.1,1.1 64.2,-53.9 z"
         id="path76"
         style="fill:#662d91;fill-opacity:1" />
      <path
         class="st0"
         d="m -934.1,-2662.8 c 5.6,4.8 11.4,9.1 17.4,13 2.2,-0.8 7,-2.8 9.1,-3.9 -7.5,-4.3 -13.3,-8.6 -20.2,-14.4 z"
         id="path78"
         style="fill:#662d91;fill-opacity:1" />
      <path
         class="st0"
         d="m -859.7,-2767.8 -5.1,13 c -0.8,-0.3 -1.6,-0.5 -2.5,-0.5 -1.6,0 -3.3,0.6 -4.5,1.9 -2.5,2.5 -2.5,6.6 0,9.1 1.3,1.3 2.9,1.9 4.6,1.9 1.6,0 3.3,-0.6 4.6,-1.9 1.9,-1.9 2.4,-4.7 1.4,-7 l 13,-5.1 53.9,-64.2 -1.1,-1.1 z"
         id="path80"
         style="fill:#662d91;fill-opacity:1" />
      <path
         class="st0"
         d="m -868,-2764.4 c -7.7,-4.8 -16.8,-7.6 -26.5,-7.6 -27.8,0 -50.5,22.6 -50.5,50.5 0,9.7 2.8,18.8 7.6,26.5 l 2.7,-1.1 c 0.4,-2.7 1.6,-5.3 3.7,-7.3 0.4,-0.4 0.9,-0.7 1.3,-1.1 -2.5,-5.2 -4,-10.9 -4,-17.1 0,-21.6 17.5,-39.1 39.1,-39.1 6.1,0 11.9,1.5 17.1,4 0.3,-0.5 0.7,-0.9 1.1,-1.3 2,-2 4.5,-3.3 7.3,-3.7 z"
         id="path82"
         style="fill:#662d91;fill-opacity:1" />
      <path
         class="st0"
         d="m -894.5,-2682.5 c -6.1,0 -11.9,-1.5 -17.1,-4 -0.3,0.5 -0.7,0.9 -1.1,1.3 -2,2 -4.5,3.3 -7.3,3.7 l -1.1,2.7 c 7.7,4.8 16.8,7.6 26.5,7.6 27.8,0 50.5,-22.6 50.5,-50.5 0,-9.7 -2.8,-18.8 -7.6,-26.5 l -2.7,1.1 c -0.4,2.7 -1.6,5.3 -3.7,7.3 -0.4,0.4 -0.9,0.7 -1.3,1.1 2.5,5.2 4,10.9 4,17.1 0,21.6 -17.5,39.1 -39.1,39.1 z"
         id="path84"
         style="fill:#662d91;fill-opacity:1" />
      <path
         class="st0"
         d="m -977.8,-2721.5 c -10.5,25.7 -11,51 0.1,68.6 l 5.5,-6.6 c -7.5,-13.7 -7.5,-32.2 -0.9,-51.8 5.2,10.1 11.9,20 19.8,29.3 l 5.3,-6.3 c -8.9,-10.6 -16,-21.9 -21.1,-33.3 6.7,-15 17,-30.2 30.7,-43.9 13.4,-13.4 28.5,-23.9 43.8,-30.7 11.3,5 22.6,12.1 33.4,21.1 l 6.3,-5.3 c -9.4,-8 -19.4,-14.6 -29.4,-19.8 3.3,-1.1 6.6,-2 9.9,-2.8 16.5,-3.7 31,-2.4 42,3.7 l 6.6,-5.6 c -13.1,-8.3 -30.6,-10.5 -50.4,-6.1 -6.1,1.4 -12.3,3.4 -18.5,5.9 -29.9,-12.2 -59.2,-10.8 -76.6,6.6 -13.5,13.5 -17.9,34.3 -12.5,58.5 1.4,6.2 3.4,12.4 6,18.5 z m 12.3,-71.1 c 13.8,-13.8 36.5,-15.8 60.7,-7.6 -13.8,7.1 -27.3,17 -39.3,29 -12.3,12.3 -22,25.7 -28.9,39.3 -1.1,-3.3 -2.1,-6.5 -2.8,-9.8 -4.9,-21.4 -1.2,-39.5 10.3,-50.9 z"
         id="path86"
         style="fill:#662d91;fill-opacity:1" />
      <path
         class="st0"
         d="m -841,-2754.9 c 9,10.8 16.1,22.1 21.1,33.4 l -0.2,0.3 c -6.9,15.4 -17.5,30.4 -30.6,43.5 -19.2,19.2 -41.9,32.5 -64,37.5 -16.5,3.7 -31,2.4 -42,-3.7 l -6.6,5.6 c 8.6,5.5 19.2,8.3 31.1,8.3 6.1,0 12.6,-0.7 19.4,-2.3 23.5,-5.3 47.7,-19.4 67.9,-39.7 11.9,-11.9 21.8,-25.4 29,-39.3 8.1,24.2 6.2,46.9 -7.6,60.7 -10.5,10.5 -26.8,14.4 -45.8,11.3 -3.6,2.2 -7.2,4.2 -10.8,6 8,2.1 15.7,3.2 23,3.2 15.9,0 29.6,-5 39.3,-14.7 25.3,-25.3 16.8,-75.6 -18,-116.4 z"
         id="path88"
         style="fill:#662d91;fill-opacity:1" />
      <path
         class="st0"
         d="m -816.8,-2783.7 c 4.6,8.5 6.4,19 5.4,30.8 2.4,3.8 4.6,7.6 6.5,11.4 4,-19.2 1.8,-36.1 -6.4,-48.9 z"
         id="path90"
         style="fill:#662d91;fill-opacity:1" />
      <path
         class="st0"
         d="m -1021.8,-2590.2 h -41.6 v 56.7 h 9.7 v -19.7 h 0.7 l 31.1,-0.1 c 3,0 5.5,-1.1 7.6,-3.2 2.1,-2.1 3.2,-4.6 3.2,-7.5 v -15.5 c 0,-2.9 -1.1,-5.5 -3.2,-7.5 -1.9,-2.1 -4.5,-3.2 -7.5,-3.2 z m 1,26.3 c 0,0.6 -0.4,1 -1,1 h -30.8 c -0.6,0 -1,-0.4 -1,-1 v -15.5 c 0,-0.6 0.4,-1 1,-1 h 30.8 c 0.6,0 1,0.4 1,1 z"
         id="path92"
         style="fill:#662d91;fill-opacity:1" />
      <path
         class="st0"
         d="m -961.1,-2544.1 c 0,0.7 -0.5,1 -0.9,1 h -31 c -0.6,0 -1,-0.4 -1,-1 v -46.1 h -9.7 v 46.1 c 0,3 1,5.5 3.1,7.6 2.1,2.1 4.6,3.1 7.6,3.1 h 30.9 c 2.9,0 5.5,-1.1 7.5,-3.1 2.1,-2.1 3.2,-4.6 3.2,-7.6 v -46.1 h -9.8 v 46.1 z"
         id="path94"
         style="fill:#662d91;fill-opacity:1" />
      <polygon
         class="st0"
         points="-941.6,-2533.4 -895.5,-2533.4 -895.5,-2543.1 -931.9,-2543.1 -931.9,-2590.3 -941.6,-2590.3 "
         id="polygon96"
         style="fill:#662d91;fill-opacity:1" />
      <path
         class="st0"
         d="m -849.2,-2590.2 h -30.9 c -3,0 -5.5,1.1 -7.6,3.1 -2.1,2.1 -3.1,4.6 -3.1,7.6 v 11.9 c 0,3 1,5.5 3.1,7.6 2.1,2.1 4.6,3.1 7.6,3.1 h 30.9 c 0.4,0 0.9,0.3 0.9,1 v 11.9 c 0,0.7 -0.5,1 -0.9,1 h -30.9 c -0.6,0 -1,-0.4 -1,-1 v -4 h -9.7 v 4 c 0,3 1,5.5 3.1,7.6 2.1,2.1 4.6,3.1 7.6,3.1 h 30.9 c 2.9,0 5.5,-1.1 7.5,-3.1 2.1,-2.1 3.2,-4.6 3.2,-7.6 v -11.9 c 0,-3 -1.1,-5.5 -3.2,-7.6 -2.1,-2.1 -4.6,-3.1 -7.5,-3.1 h -30.9 c -0.6,0 -1,-0.4 -1,-1 v -11.9 c 0,-0.6 0.4,-1 1,-1 h 30.9 c 0.4,0 0.9,0.3 0.9,1 v 4 h 9.8 v -4 c 0,-3 -1.1,-5.5 -3.2,-7.6 -2.1,-2.1 -4.6,-3.1 -7.5,-3.1 z"
         id="path98"
         style="fill:#662d91;fill-opacity:1" />
      <path
         class="st0"
         d="m -787.4,-2590.2 h -30.8 c -3,0 -5.5,1.1 -7.6,3.1 -2.1,2.1 -3.1,4.6 -3.1,7.6 v 46.1 h 9.7 v -19.4 h 32.8 v 19.4 h 9.8 v -46.1 c 0,-3 -1.1,-5.5 -3.2,-7.6 -2,-2.1 -4.6,-3.1 -7.6,-3.1 z m 1,27.7 h -32.8 v -17 c 0,-0.6 0.4,-1 1,-1 h 30.8 c 0.6,0 1,0.4 1,1 z"
         id="path100"
         style="fill:#662d91;fill-opacity:1" />
      <path
         class="st0"
         d="m -718.4,-2556.4 c 2.1,-2.1 3.2,-4.6 3.2,-7.5 v -15.5 c 0,-2.9 -1.1,-5.5 -3.2,-7.5 -2.1,-2.1 -4.7,-3.2 -7.6,-3.2 h -41.5 v 56.7 h 9.7 v -19.8 h 15 l 0.1,0.2 16.5,19.6 h 10.9 v -2.1 l -14.8,-17.6 h 4 c 3,-0.1 5.6,-1.2 7.7,-3.3 z m -38.5,-6.5 c -0.6,0 -1,-0.4 -1,-1 v -15.5 c 0,-0.6 0.4,-1 1,-1 h 30.8 c 0.6,0 1,0.4 1,1 v 15.5 c 0,0.6 -0.4,1 -1,1 z"
         id="path102"
         style="fill:#662d91;fill-opacity:1" />
    </g>
  </g>
</svg>
