<?xml version="1.0" standalone="no"?>
<!DOCTYPE svg PUBLIC "-//W3C//DTD SVG 20010904//EN"
 "http://www.w3.org/TR/2001/REC-SVG-20010904/DTD/svg10.dtd">
<svg version="1.0" xmlns="http://www.w3.org/2000/svg"
 width="864.000000pt" height="864.000000pt" viewBox="0 0 864.000000 864.000000"
 preserveAspectRatio="xMidYMid meet">
<metadata>
Created by potrace 1.14, written by Peter Selinger 2001-2017
</metadata>
<g transform="translate(0.000000,864.000000) scale(0.100000,-0.100000)"
fill="#000000" stroke="none">
<path d="M8280 8563 c-69 -43 -169 -105 -223 -138 -54 -33 -109 -67 -122 -75
-41 -26 -140 -85 -150 -89 -5 -2 -14 -8 -20 -13 -5 -5 -66 -43 -135 -85 -159
-96 -331 -201 -350 -213 -89 -57 -213 -130 -221 -130 -5 0 -9 -4 -9 -10 0 -5
-4 -10 -10 -10 -5 0 -33 -15 -62 -34 -117 -74 -331 -204 -478 -289 -85 -49
-157 -93 -160 -97 -3 -4 -23 -17 -45 -29 -22 -12 -83 -48 -135 -81 -52 -34
-106 -66 -120 -73 -14 -6 -29 -17 -33 -24 -4 -7 -12 -13 -18 -13 -5 0 -34 -15
-63 -34 -50 -32 -54 -38 -79 -112 -14 -44 -47 -140 -72 -214 -26 -74 -49 -142
-51 -150 -1 -8 -26 -80 -54 -160 -28 -80 -53 -152 -55 -160 -2 -8 -13 -42 -25
-75 -12 -33 -23 -67 -25 -75 -2 -8 -10 -31 -19 -51 -8 -20 -12 -39 -9 -43 4
-3 0 -6 -7 -6 -7 0 -11 -3 -8 -6 3 -3 -7 -42 -24 -87 -16 -45 -30 -86 -32 -92
-1 -5 -8 -26 -14 -46 -48 -141 14 -289 147 -351 80 -37 125 -32 356 39 116 35
218 66 228 68 10 2 57 16 105 32 48 15 89 28 92 28 9 2 95 26 105 29 6 2 13 4
17 5 4 1 26 8 48 16 22 8 41 14 43 14 1 0 9 2 17 4 29 10 265 79 275 81 85 20
164 52 175 70 8 11 38 62 69 111 30 50 58 92 63 93 4 2 8 9 8 15 0 11 77 137
100 164 5 7 10 14 10 17 0 5 60 103 125 206 12 19 60 96 105 170 45 74 97 158
115 185 45 71 246 396 259 420 6 11 23 38 37 60 14 22 39 60 55 85 15 25 29
47 29 50 1 6 69 113 106 166 15 23 25 44 22 48 -3 3 -1 6 5 6 7 0 12 7 12 15
0 8 4 15 9 15 5 0 13 10 17 23 4 12 9 24 13 27 3 3 11 14 18 25 6 11 37 61 68
110 31 50 61 99 68 110 7 11 28 44 47 75 42 66 54 85 76 128 10 17 21 32 26
32 4 0 8 5 8 11 0 6 20 42 45 81 l46 70 -54 61 c-30 34 -79 88 -108 120 l-54
57 -125 -77z"/>
<path d="M2666 8042 c-2 -1 -36 -4 -77 -6 -41 -2 -74 -5 -74 -6 0 -1 -18 -3
-40 -5 -55 -4 -149 -17 -156 -21 -4 -2 -24 -7 -45 -10 -48 -8 -69 -12 -69 -14
0 -1 -9 -3 -20 -5 -26 -4 -136 -34 -155 -42 -8 -3 -19 -7 -25 -9 -97 -28 -330
-136 -408 -189 -21 -14 -40 -25 -43 -25 -3 0 -10 -4 -17 -10 -7 -5 -52 -41
-102 -79 -118 -90 -239 -209 -325 -321 -19 -25 -37 -47 -40 -50 -42 -40 -240
-402 -240 -440 0 -10 -3 -20 -8 -22 -4 -1 -18 -37 -31 -78 -13 -41 -29 -93
-37 -115 -8 -22 -18 -60 -23 -85 -45 -225 -47 -235 -58 -345 -13 -128 -6 -643
9 -672 3 -4 6 -28 7 -53 2 -25 7 -46 11 -48 5 -2 6 -10 3 -17 -5 -15 41 -270
57 -315 5 -14 11 -37 13 -52 1 -15 6 -30 10 -34 4 -4 7 -15 7 -25 0 -24 89
-290 144 -434 l47 -120 -18 -45 c-9 -25 -18 -47 -19 -50 0 -3 -6 -18 -13 -35
-6 -16 -15 -41 -20 -55 -5 -14 -13 -34 -17 -45 -4 -11 -8 -22 -8 -25 -1 -3
-19 -58 -40 -123 -21 -65 -39 -123 -40 -130 -2 -7 -8 -32 -15 -57 -7 -25 -15
-52 -17 -60 -2 -8 -12 -51 -23 -95 -10 -44 -22 -93 -24 -110 -3 -16 -10 -55
-17 -85 -47 -235 -64 -429 -64 -700 1 -191 8 -302 30 -430 2 -14 7 -41 10 -60
3 -19 14 -75 26 -123 11 -49 21 -94 22 -100 2 -7 5 -19 8 -27 3 -8 14 -41 24
-72 10 -32 21 -55 25 -50 7 7 108 164 133 206 6 11 14 25 19 30 17 24 53 83
66 109 8 15 18 27 23 27 4 0 8 4 8 10 0 9 23 47 133 218 l41 64 2 241 c0 133
4 258 7 277 3 19 11 71 17 115 14 98 17 115 30 179 5 28 12 62 14 76 3 14 5
25 6 25 1 0 3 10 6 23 2 12 12 54 22 92 19 75 26 76 60 10 38 -74 287 -440
337 -497 5 -6 21 -25 34 -42 25 -34 29 -35 63 -22 13 5 26 9 30 10 4 1 27 9
50 17 24 9 48 17 53 18 17 4 348 114 380 126 16 6 25 14 19 18 -25 18 -254
315 -254 331 0 5 -4 11 -8 13 -21 8 -292 434 -292 458 0 5 -3 10 -7 12 -5 2
-24 35 -44 73 -20 39 -57 110 -83 158 -25 48 -46 93 -46 100 0 20 161 331 201
389 11 14 19 29 19 32 0 9 146 234 260 401 49 72 215 285 222 285 4 0 8 5 8
10 0 6 9 21 21 33 11 12 30 35 42 50 12 15 33 40 47 56 14 15 57 63 95 106
128 145 388 399 541 531 113 97 115 98 249 202 66 51 125 97 132 102 7 5 70
48 140 95 70 47 133 89 138 93 18 14 185 113 243 144 32 17 73 40 92 52 19 11
41 21 48 22 8 2 21 9 30 17 19 16 53 31 65 29 4 -1 7 2 7 8 0 6 3 9 8 8 4 -1
23 7 44 17 l36 18 119 -63 c262 -139 596 -358 793 -521 14 -11 38 -30 53 -42
15 -12 40 -33 54 -46 l26 -23 13 23 c7 13 13 29 14 36 0 6 4 22 9 35 5 13 9
25 9 28 0 4 6 21 38 105 4 11 8 25 10 30 1 6 26 77 54 159 39 115 48 152 39
162 -6 8 -15 14 -20 14 -9 0 -44 28 -81 63 -10 9 -21 17 -24 17 -4 0 -26 16
-50 35 -23 19 -47 35 -52 35 -6 0 -12 4 -14 8 -1 5 -32 28 -68 52 -36 24 -67
46 -70 49 -5 6 -18 14 -98 62 -42 25 -51 34 -41 45 6 7 14 13 17 12 4 0 9 1
12 2 3 1 12 3 20 5 103 26 146 36 177 40 21 2 83 12 138 21 67 11 179 17 339
19 131 2 242 7 245 12 3 5 26 20 51 34 25 13 49 27 55 32 14 11 228 142 246
150 8 4 46 27 84 51 39 25 105 65 147 91 43 26 80 50 83 55 4 7 -85 44 -133
55 -9 3 -48 14 -87 25 -83 24 -302 66 -400 76 -171 17 -550 9 -708 -15 -34 -6
-82 -13 -107 -16 -166 -23 -625 -147 -780 -212 -8 -3 -18 -5 -22 -5 -5 1 -8
-3 -8 -10 0 -6 -3 -9 -6 -5 -3 3 -32 -6 -64 -20 l-59 -25 -103 40 c-114 45
-339 121 -378 128 -14 3 -41 10 -60 16 -19 7 -37 13 -40 13 -12 2 -86 19 -97
22 -7 1 -19 5 -25 6 -14 4 -74 17 -98 21 -8 1 -28 5 -45 9 -16 3 -46 9 -65 11
-19 3 -44 7 -55 10 -20 4 -80 12 -159 21 -117 14 -451 26 -460 17z m394 -585
c14 -3 48 -8 75 -11 28 -3 74 -10 104 -16 30 -5 56 -8 59 -5 3 2 14 -1 26 -7
11 -6 30 -12 41 -13 11 -1 34 -5 50 -9 17 -4 51 -12 78 -19 49 -11 58 -21 30
-31 -14 -6 -250 -157 -278 -179 -5 -4 -41 -30 -80 -57 -38 -27 -74 -53 -80
-58 -5 -4 -26 -19 -45 -32 -19 -14 -37 -27 -40 -30 -3 -3 -25 -21 -50 -40 -25
-19 -56 -45 -70 -57 -14 -13 -28 -23 -31 -23 -3 0 -19 -12 -35 -27 -17 -16
-49 -44 -73 -63 -205 -169 -536 -499 -741 -740 -47 -55 -57 -67 -95 -115 -22
-27 -46 -57 -55 -66 -8 -8 -24 -28 -35 -44 -11 -15 -28 -36 -37 -47 -10 -10
-18 -20 -18 -22 0 -3 -26 -40 -58 -83 -86 -114 -192 -270 -192 -281 0 -6 -7
-12 -15 -16 -8 -3 -15 -10 -15 -15 0 -9 -68 -122 -88 -146 -4 -5 -15 -25 -22
-42 -8 -18 -20 -33 -25 -33 -17 0 -76 258 -90 395 -15 154 -18 207 -19 345 0
210 10 310 48 475 35 147 113 354 157 417 10 14 19 31 19 37 0 6 5 11 10 11 6
0 10 5 10 11 0 12 51 86 95 139 51 60 208 210 227 216 10 3 18 10 18 15 0 5 6
9 14 9 8 0 16 4 18 8 2 4 26 22 55 39 178 109 419 186 653 209 36 4 67 8 69
10 5 5 404 -4 431 -9z"/>
<path d="M7856 6678 c-3 -7 -18 -34 -33 -59 -106 -174 -208 -341 -265 -429
-29 -46 -34 -59 -26 -80 14 -37 57 -232 64 -287 10 -84 13 -453 4 -458 -5 -3
-5 -16 0 -30 6 -15 5 -25 -1 -27 -5 -2 5 -26 22 -53 18 -28 40 -63 49 -80 10
-16 41 -70 69 -118 28 -49 101 -186 162 -305 61 -120 114 -220 118 -224 3 -4
7 0 8 10 0 9 4 28 7 42 3 14 8 36 11 50 3 14 7 36 11 50 3 14 7 34 9 45 2 11
13 61 24 110 17 80 26 125 36 190 2 11 6 34 8 50 13 76 22 155 33 275 4 57 4
317 -1 390 -7 101 -20 198 -41 298 -3 15 -7 38 -9 52 -2 14 -11 47 -19 74 -8
27 -13 53 -10 58 3 4 1 8 -4 8 -6 0 -13 15 -16 33 -13 68 -87 245 -149 355
-41 73 -50 82 -61 60z"/>
<path d="M4347 5564 c-3 -3 -43 -8 -89 -9 -70 -3 -125 -12 -248 -40 -77 -17
-215 -76 -315 -134 -33 -19 -64 -38 -70 -43 -5 -4 -35 -27 -65 -50 -126 -96
-269 -260 -322 -368 -7 -14 -15 -27 -18 -30 -19 -17 -104 -227 -114 -282 -2
-15 -7 -32 -10 -36 -5 -9 -9 -29 -23 -137 -14 -102 -8 -302 13 -415 10 -59 54
-200 76 -249 11 -25 21 -48 21 -51 0 -3 11 -22 23 -42 13 -21 24 -40 24 -42 0
-7 79 -129 88 -136 4 -3 20 -23 37 -45 54 -73 182 -190 277 -254 69 -46 175
-101 182 -94 3 4 6 2 6 -3 0 -9 84 -45 103 -44 4 0 21 -7 37 -15 17 -9 30 -13
30 -11 0 3 12 1 28 -5 90 -35 304 -52 472 -37 209 19 477 126 644 258 84 66
188 172 240 242 17 24 34 45 38 46 5 2 8 10 8 18 0 8 3 14 8 14 4 0 12 10 18
23 6 12 27 53 48 92 58 107 135 348 122 381 -3 7 -2 15 3 18 20 13 18 324 -3
423 -4 15 -8 37 -11 48 -25 117 -92 285 -150 375 -16 25 -29 47 -30 50 -2 31
-237 282 -297 318 -16 9 -28 20 -28 24 0 4 -5 8 -11 8 -6 0 -25 11 -42 24 -70
53 -250 133 -362 161 -16 5 -34 9 -40 11 -5 1 -28 5 -50 9 -22 3 -47 8 -55 10
-8 3 -51 7 -95 10 -43 4 -82 8 -86 10 -3 3 -9 2 -12 -1z"/>
<path d="M6875 5535 c-25 -8 -219 -67 -300 -90 -49 -15 -108 -33 -130 -40 -22
-8 -51 -16 -65 -19 -14 -2 -40 -10 -58 -17 l-32 -14 28 -30 c39 -41 194 -240
268 -345 71 -98 204 -299 204 -306 0 -3 13 -24 28 -47 16 -23 43 -69 62 -102
18 -33 44 -79 57 -102 l24 -43 -41 -97 c-59 -143 -141 -308 -233 -473 -83
-150 -262 -432 -278 -438 -5 -2 -9 -8 -9 -13 0 -6 -5 -15 -10 -22 -6 -7 -35
-46 -66 -87 -69 -95 -213 -276 -259 -326 -5 -7 -44 -49 -85 -95 -133 -149
-419 -429 -540 -530 -44 -36 -111 -94 -129 -109 -94 -86 -462 -343 -641 -449
-58 -34 -112 -66 -120 -71 -8 -5 -35 -20 -60 -33 -25 -13 -79 -41 -120 -62
-41 -21 -77 -40 -80 -40 -3 -1 -36 -16 -75 -34 -63 -30 -111 -51 -125 -56 -3
-1 -16 -6 -30 -12 -14 -6 -47 -20 -75 -30 -27 -11 -59 -24 -70 -28 -11 -5 -22
-9 -25 -10 -27 -6 -87 -29 -95 -35 -5 -5 -13 -8 -18 -8 -4 0 -40 -10 -80 -22
-39 -12 -79 -24 -87 -25 -8 -2 -15 -4 -15 -5 0 -1 -7 -3 -16 -5 -9 -1 -42 -10
-74 -20 -32 -9 -70 -18 -86 -20 -16 -2 -36 -6 -46 -9 -10 -3 -31 -8 -48 -11
-16 -2 -39 -7 -50 -9 -113 -22 -280 -37 -445 -40 -86 -2 -100 -5 -145 -31 -27
-17 -57 -34 -67 -40 -9 -5 -81 -48 -160 -95 -78 -47 -147 -87 -153 -89 -5 -2
-21 -12 -35 -21 -14 -10 -83 -52 -153 -93 -112 -66 -126 -77 -109 -86 38 -20
288 -80 397 -96 191 -26 623 -27 775 -1 14 3 61 10 105 16 44 7 89 14 100 16
11 3 45 9 75 15 160 31 538 140 637 185 17 8 37 14 45 14 7 0 36 12 63 25 28
14 54 25 58 25 4 0 42 16 83 35 41 19 81 35 88 35 7 0 19 7 26 15 7 8 18 15
24 15 11 0 203 95 291 145 65 36 172 97 193 110 9 6 40 23 67 40 28 16 52 32
55 35 3 4 21 15 40 26 19 10 37 21 40 24 3 3 32 23 65 45 33 22 62 42 65 45 3
3 34 25 70 49 36 25 67 48 68 53 2 4 8 8 14 8 5 0 15 6 23 12 7 7 24 21 37 31
52 39 202 159 213 170 7 7 22 19 34 27 12 8 44 35 71 60 27 25 74 68 106 95
80 69 397 387 464 465 30 35 64 74 75 85 11 12 38 44 60 71 21 27 42 51 45 54
3 3 23 28 45 55 22 28 43 55 48 60 38 46 182 245 222 305 27 41 55 81 62 88 7
7 13 17 13 22 0 5 6 15 13 22 6 8 20 27 30 43 10 17 43 73 74 125 31 52 60 97
65 98 4 2 8 12 8 22 0 9 7 23 15 30 8 7 15 16 15 21 0 19 74 141 78 128 2 -8
7 -23 12 -34 4 -11 16 -49 25 -85 10 -36 24 -82 31 -102 8 -21 12 -38 9 -38
-2 0 2 -21 10 -47 7 -27 16 -64 19 -84 3 -20 8 -42 10 -50 3 -8 8 -32 10 -54
3 -22 7 -51 10 -65 34 -194 39 -541 11 -689 -1 -9 -6 -37 -9 -62 -3 -25 -17
-88 -31 -140 -14 -52 -27 -101 -29 -109 -15 -59 -125 -300 -137 -300 -4 0 -11
-10 -15 -22 -14 -44 -159 -225 -230 -288 -52 -46 -158 -126 -203 -155 -65 -40
-228 -120 -266 -131 -5 -1 -43 -14 -82 -28 -40 -13 -73 -23 -73 -21 0 3 -12 0
-27 -6 -16 -6 -39 -13 -53 -15 -23 -4 -63 -12 -100 -21 -8 -2 -31 -5 -50 -7
-19 -3 -64 -8 -100 -12 -84 -11 -403 -11 -500 -1 -41 5 -91 10 -110 12 -77 8
-145 18 -149 21 -2 2 -18 -6 -35 -19 -56 -41 -207 -123 -476 -259 l-264 -133
94 -23 c52 -13 111 -27 130 -31 19 -5 47 -13 63 -19 15 -7 27 -10 27 -8 0 2
20 -2 45 -10 25 -7 45 -11 45 -8 0 3 9 0 20 -6 10 -6 32 -12 47 -14 15 -3 39
-7 53 -10 87 -20 151 -31 225 -41 17 -2 30 -5 30 -6 0 -1 16 -3 35 -5 19 -2
49 -6 65 -8 128 -18 237 -25 415 -25 186 0 314 8 398 24 30 5 102 17 125 20
73 10 251 56 359 94 81 28 254 105 318 141 83 46 163 95 185 113 6 4 45 35 88
67 301 228 560 606 667 975 19 68 39 142 44 167 3 12 7 34 10 48 3 13 8 40 11
60 3 20 8 47 11 60 3 14 7 48 10 75 2 28 7 79 11 115 13 129 6 505 -11 587 -3
12 -7 48 -11 80 -10 96 -13 110 -21 135 -4 12 -8 34 -9 48 -1 14 -4 36 -8 50
-4 14 -9 36 -11 50 -2 14 -9 45 -16 70 -7 25 -14 56 -17 69 -6 33 -59 220 -71
251 -5 14 -11 30 -12 35 -1 6 -6 20 -11 33 -5 13 -9 27 -9 32 0 5 -7 24 -15
42 -8 18 -29 74 -47 123 -18 50 -35 92 -38 95 -3 3 -6 11 -8 18 -1 7 -12 34
-23 60 -12 26 -28 63 -37 82 -40 92 -210 426 -232 455 -5 6 -18 28 -31 50 -12
22 -27 49 -33 60 -45 79 -248 386 -271 408 -8 9 -15 20 -15 26 0 6 -4 11 -10
11 -5 0 -10 4 -10 10 0 5 -8 19 -17 31 -40 47 -49 58 -63 80 -26 39 -65 77
-75 74z"/>
<path d="M2925 3134 c-30 -7 -207 -62 -320 -99 -225 -74 -450 -147 -460 -149
-5 -1 -77 -24 -160 -50 -82 -27 -154 -49 -160 -50 -5 -1 -14 -4 -20 -7 -5 -3
-51 -18 -101 -34 -94 -29 -91 -26 -144 -115 -8 -14 -25 -39 -37 -57 -13 -17
-23 -36 -23 -42 0 -6 -4 -11 -8 -11 -5 0 -14 -11 -20 -25 -7 -14 -16 -31 -22
-38 -20 -24 -78 -117 -74 -117 3 0 -1 -6 -8 -13 -7 -8 -89 -136 -183 -286
-236 -378 -245 -392 -245 -401 0 -5 -3 -10 -7 -12 -8 -3 -83 -114 -83 -122 0
-3 -17 -31 -38 -63 -21 -32 -52 -80 -70 -108 -17 -27 -35 -54 -39 -60 -5 -5
-28 -43 -52 -84 -25 -40 -49 -78 -55 -85 -6 -6 -20 -28 -31 -48 -11 -21 -23
-38 -27 -38 -5 0 -8 -4 -8 -10 0 -5 -26 -49 -57 -97 -32 -48 -56 -91 -55 -95
1 -5 -3 -8 -8 -8 -6 0 -10 -6 -10 -14 0 -8 -3 -16 -8 -18 -4 -2 -27 -34 -51
-73 -97 -153 -121 -191 -131 -205 -44 -67 -90 -142 -90 -150 0 -4 -4 -10 -8
-12 -4 -2 -25 -30 -45 -63 l-37 -59 49 -46 c27 -25 79 -73 116 -108 65 -60 68
-62 91 -48 12 9 38 24 57 35 19 10 65 38 102 60 37 23 69 41 71 41 3 0 17 9
32 19 15 10 83 52 152 92 69 40 127 77 128 81 2 4 8 8 13 8 5 0 65 34 134 75
68 41 129 75 135 75 5 0 10 5 10 10 0 6 7 10 15 10 8 0 15 5 15 10 0 6 4 10 9
10 13 0 135 73 139 82 2 5 8 8 13 8 5 0 52 26 104 58 52 31 110 65 128 76 130
74 373 222 375 228 2 5 8 8 13 8 5 0 26 11 47 23 20 13 71 41 112 62 41 22 86
47 100 56 14 9 149 90 300 179 151 90 289 172 306 183 26 17 36 36 60 111 16
50 29 93 30 96 0 3 6 18 12 33 7 16 12 33 12 38 0 5 12 42 26 82 14 39 27 81
29 91 3 11 19 63 37 115 18 53 33 98 33 101 1 7 25 82 32 100 3 8 8 21 10 28
1 6 5 18 6 25 2 6 7 19 10 27 5 12 78 244 82 260 7 26 49 157 53 165 11 18 17
111 9 141 -31 122 -131 209 -249 217 -29 2 -57 3 -63 1z"/>
<path d="M3355 2298 c-4 -18 -11 -39 -16 -48 -10 -18 -33 -105 -28 -106 2 0
-2 -8 -10 -17 -7 -10 -10 -17 -6 -17 4 0 3 -6 -2 -12 -6 -7 -14 -31 -18 -53
-4 -22 -10 -44 -13 -50 -4 -5 -7 -12 -8 -15 -3 -18 -26 -99 -34 -115 -30 -69
-29 -79 7 -105 19 -14 51 -40 71 -57 20 -18 40 -33 44 -33 4 0 15 -8 25 -18
24 -25 152 -112 163 -112 10 0 197 72 245 95 17 8 54 24 83 36 28 13 52 26 52
31 0 4 9 8 19 8 11 0 22 4 25 9 3 5 23 18 43 29 155 82 153 80 93 110 -31 15
-58 30 -193 112 -59 36 -117 69 -127 75 -11 5 -20 13 -20 17 0 5 -5 8 -11 8
-6 0 -28 14 -49 30 -21 17 -42 30 -48 30 -6 0 -12 3 -14 8 -1 4 -48 41 -103
82 -55 40 -109 82 -119 92 -29 26 -43 22 -51 -14z"/>
</g>
</svg>
